<svg width="12" height="11" viewBox="0 0 12 11" fill="none" xmlns="http://www.w3.org/2000/svg">
<rect width="12" height="11" rx="1" fill="white"/>
<path d="M5.72725 4.33333C7.23347 4.33333 8.4545 3.811 8.4545 3.16667C8.4545 2.52233 7.23347 2 5.72725 2C4.22103 2 3 2.52233 3 3.16667C3 3.811 4.22103 4.33333 5.72725 4.33333Z" fill="black"/>
<path d="M5.72725 5.88875C5.99664 5.88875 6.25645 5.86925 6.50239 5.83381L6.7062 5.61182C6.80382 5.50522 6.93297 5.45082 7.06313 5.45082C7.15065 5.45082 7.23843 5.47555 7.31739 5.52583C7.3749 5.28653 7.57417 5.11592 7.80522 5.11592H8.18359C8.1904 5.11592 8.19721 5.11757 8.20377 5.11784C8.36344 4.94998 8.4545 4.76343 8.4545 4.56645C8.4545 4.29803 8.4545 4.01835 8.4545 3.55542C8.4545 4.28594 7.23364 4.87772 5.727 4.87772C4.22035 4.87772 3 4.28594 3 3.55542C3 3.86038 3 4.06423 3 4.56645C3 5.29697 4.2206 5.88875 5.72725 5.88875Z" fill="black"/>
<path d="M5.65534 7.44417C5.73834 7.44417 5.81987 7.4417 5.90091 7.43813V7.28646C5.90091 7.03257 6.05586 6.81413 6.2727 6.75368C6.21573 6.6457 6.19485 6.52287 6.20836 6.40445C6.02983 6.42313 5.84516 6.4333 5.65534 6.4333C4.18855 6.4333 3 5.84172 3 5.11084C3 5.41583 3 5.61971 3 6.12199C3.00025 6.85232 4.18855 7.44417 5.65534 7.44417Z" fill="black"/>
<path d="M6.2727 8.41297C6.08642 8.35995 5.94732 8.19016 5.91218 7.98273C5.82813 7.98686 5.7431 7.98905 5.65733 7.98905C4.18945 7.98905 3 7.39755 3 6.66675C3 6.97171 3 7.17556 3 7.67778C3 8.4083 4.18945 9.00008 5.65733 9.00008C5.86843 9.00008 6.0729 8.98662 6.26999 8.96327C6.18447 8.79375 6.18054 8.58441 6.2727 8.41297Z" fill="black"/>
<path d="M9.00001 7.63605V7.24716L8.59434 7.17146C8.57047 7.06205 8.53275 6.95912 8.48297 6.86423L8.71933 6.48001L8.4782 6.20494L8.14548 6.47794C8.06252 6.42064 7.97161 6.37683 7.87502 6.3496L7.80412 5.88916H7.46321L7.39753 6.34831C7.30071 6.37527 7.20935 6.41831 7.12617 6.47509L6.79435 6.20494L6.55322 6.48001L6.78663 6.8606C6.73594 6.95601 6.69754 7.05997 6.67344 7.1712L6.27277 7.24716V7.63605L6.67322 7.71694C6.69708 7.82816 6.73549 7.93238 6.7864 8.02779L6.54981 8.40501L6.79094 8.68035L7.12503 8.41357C7.20867 8.47086 7.2998 8.5139 7.39639 8.54112L7.46321 9.00027H7.80412L7.87571 8.53983C7.97184 8.51235 8.06275 8.46827 8.1457 8.41098L8.48229 8.68035L8.7232 8.40501L8.48297 8.02468C8.53275 7.93005 8.57047 7.82686 8.59411 7.71694L9.00001 7.63605ZM7.63639 7.98709C7.37412 7.98709 7.16094 7.74442 7.16094 7.44472C7.16094 7.14553 7.37412 6.90235 7.63639 6.90235C7.89911 6.90235 8.11184 7.14553 8.11184 7.44472C8.11184 7.74442 7.89911 7.98709 7.63639 7.98709Z" fill="black"/>
</svg>
