<svg width="25" height="19" viewBox="0 0 25 19" fill="none" xmlns="http://www.w3.org/2000/svg">
<path d="M25 16.8889V4.22222C25 4.22222 13.625 13.1593 12.5188 13.623C11.4313 13.1804 0 4.22222 0 4.22222V16.8889C0 18.6481 0.33125 19 1.875 19H23.125C24.7056 19 25 18.6911 25 16.8889ZM24.9819 1.73885C24.9819 0.457407 24.65 0 23.125 0H1.875C0.30625 0 0 0.548889 0 1.82963L0.01875 2.02667C0.01875 2.02667 11.3119 10.7807 12.5188 11.2593C13.7938 10.7033 25 1.82963 25 1.82963L24.9819 1.73885Z" fill="#FF7600"/>
</svg>
