<svg width="50" height="50" viewBox="0 0 50 50" fill="none" xmlns="http://www.w3.org/2000/svg">
<path d="M41.013 7H8.987C8.46002 7 7.95461 7.20934 7.58198 7.58198C7.20934 7.95461 7 8.46002 7 8.987V41.0135C7.00013 41.5404 7.20954 42.0457 7.58216 42.4182C7.95478 42.7907 8.4601 43 8.987 43H26.2285V29.059H21.537V23.626H26.2285V19.619C26.2285 14.969 29.0685 12.4375 33.2165 12.4375C35.2035 12.4375 36.911 12.585 37.409 12.6515V17.511L34.532 17.5125C32.276 17.5125 31.8395 18.5845 31.8395 20.1575V23.6265H37.2195L36.519 29.0595H31.8395V43H41.0135C41.5404 42.9999 42.0457 42.7905 42.4182 42.4178C42.7907 42.0452 43 41.5399 43 41.013V8.987C43 8.46002 42.7907 7.95461 42.418 7.58198C42.0454 7.20934 41.54 7 41.013 7Z" fill="white"/>
</svg>
