<svg width="50" height="50" viewBox="0 0 50 50" fill="none" xmlns="http://www.w3.org/2000/svg">
<path d="M0 0V50H50V0H0ZM4.54545 4.54545H45.4545V45.4545H4.54545V4.54545ZM26.9795 12.1841C25.5432 12.1841 24.7023 12.9523 24.7023 14.3886C24.7023 15.8477 25.5455 16.6636 26.9795 16.6636C28.4386 16.6636 29.2795 15.8455 29.2795 14.3864C29.2795 12.95 28.4386 12.1841 26.9795 12.1841ZM34.0545 14.5818C33.7818 17.3273 32.8932 18.4409 30.6909 18.6886V20.9432C32.7205 20.9432 32.6455 20.8636 32.6455 21.1864V27.8182C32.6455 30.6636 33.7841 31.8182 36.8045 31.8182C38.2257 31.8008 39.6261 31.4751 40.9091 30.8636L40.2159 28.6318C36.1591 30.1659 36.3636 27.3955 36.3636 26.975V20.9386H40.2159V18.4159H36.3636V14.5818H34.0545ZM15.2932 18.6705C12.6614 18.6818 9.48636 19.7318 9.48636 23.5932C9.48636 25.4477 10.4295 26.7591 11.6659 27.3795C10.1068 28.8114 9.36136 29.4795 9.36136 30.4205C9.36136 31.1136 9.65909 31.7273 10.475 32.0977C9.61136 32.9159 9.09091 33.5386 9.09091 34.6773C9.09091 36.6545 10.8455 37.8205 15.3977 37.8205C19.8023 37.8205 22.3523 36.1841 22.3523 33.2909C22.3523 29.6318 19.5568 29.7795 12.925 29.3591L13.7659 28.0182C15.4477 28.4886 21.1386 28.6409 21.1386 23.8136C21.1386 22.6523 20.6682 21.8364 20.1977 21.2682L22.5227 21.0932V18.9364H17.6C16.8452 18.7517 16.0702 18.6624 15.2932 18.6705ZM23.9886 18.6932L23.7136 20.7477C25.2727 21.2909 25.3955 21.2136 25.3955 21.7341V29.1818C25.3955 29.7273 25.3705 29.6295 23.7136 29.8523V31.8182H30.9136V29.8523L29.625 29.6795C29.2545 29.6295 29.2295 29.5773 29.2295 29.1795V18.6932H23.9886ZM15.5 21.1864C18.5909 21.1864 18.6659 25.5955 15.425 25.5955C12.1591 25.5955 12.3068 21.1864 15.5 21.1864ZM12.7273 32.7682C17.5523 33.1159 18.5909 32.9909 18.5909 33.9568C18.5909 35.9614 12.0818 35.9614 12.0818 34.1045C12.0818 33.6091 12.4045 33.1886 12.7273 32.7682Z" fill="white"/>
</svg>
