<svg width="686" height="640" viewBox="0 0 686 640" fill="none" xmlns="http://www.w3.org/2000/svg">
<path fill-rule="evenodd" clip-rule="evenodd" d="M526.125 24.5326C425.015 -35.9218 291.771 19.1981 228.516 147.646L228.469 147.741C225.492 153.791 220.435 158.451 213.764 161.22C181.52 174.609 150.354 192.516 121.705 214.89C-11.2224 318.704 -39.6506 479.281 58.2066 573.548C156.064 667.815 343.152 660.076 476.079 556.262C544.277 503.001 584.97 434.797 595.213 368.273C595.625 365.597 596.375 363.06 597.472 360.717C656.972 233.504 625.703 84.0709 526.125 24.5326Z" fill="white"/>
<path fill-rule="evenodd" clip-rule="evenodd" d="M327.448 192.304C327.448 192.304 322.195 200.633 320.047 211.111C319.13 215.586 317.914 221.24 320.365 227.383C320.956 228.866 323.984 236.728 331.162 238.82C340.152 241.443 348.239 232.871 349.928 231.08C355.181 225.513 356.633 219.206 357.994 213.297C358.683 210.312 361.479 198.173 358.113 184.608C357.395 181.718 356.249 178.154 355.899 172.629C355.616 168.154 355.413 164.24 357.308 160.44C359.103 156.84 360.874 157.167 365.873 152.349C368.668 149.658 373.179 145.311 375.708 138.863C377.519 134.244 376.168 134.017 378.553 125.868C380.309 119.865 381.187 116.864 383.53 114.729C387.21 111.376 391.025 112.342 392.596 109.16C393.503 107.324 391.881 106.477 392.107 102.243C392.22 100.119 392.342 97.8128 393.947 95.9371C395.229 94.4377 397.555 93.0972 399.586 93.699C401.293 94.2044 401.457 95.6844 402.857 96.467C405.118 97.7303 408.092 95.8379 412.33 93.22C416.695 90.5222 416.701 90.4634 420.024 88.7597C424.512 86.4593 425.959 86.4997 427.215 84.9635C430.027 81.5235 426.49 72.4186 422.088 66.551C414.573 56.532 401.296 51.6295 389.075 52.5778C372.16 53.8912 362.02 66.0431 359.832 68.8207C352.649 77.9405 350.811 88.0508 349.877 93.1858C347.525 106.127 351.148 108.888 347.699 120.474C346.355 124.991 344.107 132.544 338.055 139.641C333.415 145.083 329.433 146.864 326.856 153.61C326.188 155.36 324.807 159.09 325.148 163.832C325.367 166.869 326.385 169.762 328.422 175.548C330.324 180.957 331.042 181.973 330.914 184.336C330.736 187.643 329.115 189.66 327.448 192.304Z" fill="black"/>
<path d="M395.339 132.269C395.481 131.557 396.149 131.101 396.83 131.25C397.472 131.39 397.896 132.016 397.825 132.683L397.806 132.808L395.663 143.494L394.78 147.89C394.694 148.316 394.412 148.671 394.026 148.837C390.022 150.556 385.579 151.558 380.53 151.329C376.721 151.156 373.169 150.284 369.883 148.881C369.239 148.607 368.93 147.838 369.193 147.165C369.457 146.493 370.192 146.17 370.837 146.445C373.865 147.737 377.134 148.541 380.639 148.7C384.927 148.894 388.744 148.122 392.209 146.756L392.453 146.657L395.339 132.269Z" fill="black"/>
<path d="M425.305 79.1614C425.996 79.079 426.621 79.5976 426.7 80.3197C428.335 95.2793 426.736 108.314 422.395 118.85C418.809 127.543 412.747 133.487 405.529 134.85C404.708 135.007 403.762 135.052 402.718 134.993C400.979 134.903 398.929 134.533 396.724 133.94L392.608 132.803C392.329 132.724 392.073 132.651 391.823 132.579L391.164 132.386C390.252 132.115 389.372 131.837 388.35 131.496C387.687 131.275 387.321 130.535 387.533 129.842C387.745 129.15 388.454 128.768 389.117 128.989L390.073 129.303C390.533 129.451 390.973 129.589 391.413 129.722L392.17 129.948L393.478 130.322L396.899 131.267C399.128 131.892 401.18 132.278 402.849 132.364C403.713 132.413 404.465 132.378 405.077 132.261C411.38 131.07 416.803 125.753 420.08 117.809C424.24 107.712 425.783 95.1377 424.196 80.6182C424.117 79.8961 424.613 79.2439 425.305 79.1614Z" fill="black"/>
<path d="M350.091 229.362C350.776 229.238 351.428 229.718 351.547 230.434C353.293 240.973 354.764 251.675 355.943 262.542C358.714 288.204 359.688 313.322 359.103 337.884L359.075 338.995L360.004 338.187C361.407 336.977 362.842 335.786 364.311 334.613L365.418 333.738C367.519 332.095 369.633 330.533 371.757 329.05C372.335 328.646 373.118 328.808 373.505 329.413C373.892 330.017 373.736 330.834 373.158 331.238C371.071 332.695 368.993 334.23 366.93 335.844C364.01 338.129 361.224 340.49 358.562 342.921C357.732 343.678 356.437 343.037 356.473 341.888C357.268 316.151 356.35 289.795 353.439 262.838C352.265 252.023 350.801 241.372 349.064 230.883C348.945 230.166 349.405 229.485 350.091 229.362Z" fill="black"/>
<path d="M382.386 221.306C383.081 221.258 383.681 221.807 383.727 222.532C385.397 248.76 388.679 275.302 393.799 302.168C396.153 314.519 398.845 326.663 401.854 338.618C402.037 339.343 401.605 340.07 400.921 340.235L400.805 340.257L380.87 343.081C380.266 343.167 379.691 342.789 379.502 342.184C376.169 331.48 373.386 320.333 371.253 308.685C369.313 298.096 368.017 287.68 367.281 277.42C367.229 276.695 367.75 276.064 368.444 276.009C369.138 275.955 369.743 276.498 369.795 277.223C370.524 287.386 371.807 297.703 373.728 308.191C375.741 319.178 378.336 329.716 381.431 339.853L381.576 340.324L399.057 337.848L398.774 336.712C396.222 326.398 393.907 315.943 391.839 305.336L391.327 302.681C386.185 275.701 382.889 249.046 381.212 222.707C381.166 221.981 381.692 221.354 382.386 221.306Z" fill="black"/>
<path d="M392.574 146.623C393.18 146.265 393.949 146.488 394.291 147.121C396.546 151.282 398.799 154.952 401.104 158.361C402.123 159.863 403.06 161.176 404.027 162.46C404.257 162.765 404.489 163.071 404.728 163.38L405.09 163.846C405.967 164.971 413.05 173.572 417.416 179.039L423.227 186.382C428.353 192.896 429.726 194.806 430.489 196.335C431.202 197.764 431.781 199.141 432.245 200.518L432.414 201.035C433.942 205.859 434.15 208.375 433.766 220.442L433.517 227.768C433.476 229.062 433.441 230.284 433.411 231.519L433.37 233.597L433.36 234.293C433.188 247.798 433.522 263.914 434.777 279.45C435.502 288.4 436.583 296.779 437.904 304.545C438.024 305.249 437.583 305.924 436.911 306.065C431.545 307.19 426.094 308.575 420.58 310.233C414.309 312.121 408.252 314.277 402.4 316.669C401.751 316.934 401.02 316.6 400.767 315.923C400.513 315.246 400.833 314.483 401.481 314.218C407.404 311.797 413.535 309.615 419.882 307.704C424.956 306.178 429.978 304.881 434.931 303.802L435.21 303.742L435.01 302.508C433.93 295.796 433.032 288.65 432.384 281.093L432.265 279.671C431.04 264.495 430.687 248.793 430.826 235.463L430.876 232.074L430.923 230.211C430.963 228.762 431.009 227.293 431.066 225.667L431.245 220.416C431.619 208.69 431.424 206.291 430.021 201.861C429.63 200.626 429.138 199.39 428.525 198.105L428.171 197.388C427.439 195.999 425.813 193.801 420.407 186.945L415.19 180.362C411.102 175.254 404.877 167.684 403.375 165.81L403.135 165.509C402.76 165.027 402.399 164.557 402.045 164.087C401.053 162.768 400.09 161.42 399.046 159.88C396.694 156.402 394.396 152.659 392.098 148.417C391.755 147.784 391.968 146.981 392.574 146.623Z" fill="black"/>
<path d="M431.208 304.685C431.863 304.685 432.402 305.207 432.463 305.875L432.468 306.001V447.465L432.464 447.574L432.451 447.681L414.424 560.885C414.31 561.602 413.661 562.086 412.975 561.967C412.328 561.855 411.879 561.248 411.924 560.579L411.938 560.453L429.947 447.359L429.948 306.001C429.948 305.317 430.448 304.755 431.087 304.691L431.208 304.685Z" fill="black"/>
<path d="M384.468 368.31C385.121 368.246 385.703 368.713 385.824 369.371L385.841 369.497L393.069 449.805L393.074 449.967L389.46 577.926C389.44 578.653 388.859 579.224 388.163 579.204C387.509 579.183 386.985 578.645 386.943 577.976L386.941 577.849L390.552 449.967L383.332 369.743C383.27 369.062 383.718 368.453 384.348 368.328L384.468 368.31Z" fill="black"/>
<path fill-rule="evenodd" clip-rule="evenodd" d="M384.586 560.669H421.118L451.045 568.151C455.276 569.208 458.259 573.158 458.259 577.701V582.949L384.586 582.024V560.669Z" fill="black"/>
<path fill-rule="evenodd" clip-rule="evenodd" d="M326.195 519.257L308.586 539.33L357.782 582.676H372.729V578.064L361.373 569.683L350.699 538.741L326.195 519.257Z" fill="black"/>
<path d="M390.128 441.26C390.566 440.694 391.359 440.607 391.9 441.064C392.408 441.492 392.513 442.247 392.164 442.806L392.088 442.915L329.513 523.71C329.076 524.275 328.282 524.363 327.741 523.906C327.234 523.477 327.128 522.722 327.478 522.164L327.554 522.055L390.128 441.26Z" fill="black"/>
<path d="M389.632 496.714C390.155 496.234 390.951 496.288 391.41 496.834C391.841 497.346 391.823 498.108 391.388 498.597L391.296 498.691L348.102 538.333C347.579 538.813 346.783 538.759 346.323 538.213C345.892 537.701 345.911 536.938 346.345 536.45L346.438 536.356L389.632 496.714Z" fill="black"/>
<path d="M397.486 338.177C398.088 337.813 398.859 338.027 399.208 338.655L400.064 340.208C400.657 341.291 401.298 342.477 402.017 343.817L402.886 345.459C409.177 357.418 410.431 361.444 409.453 364.298C407.412 370.264 398.982 373.746 391.48 372.839C389.711 372.627 388.263 372.331 386.563 371.666C383.935 370.638 381.819 369.029 380.484 366.687C379.009 364.1 378.923 361.299 380.064 354.208C380.738 349.968 381.635 345.599 382.847 340.961C383.03 340.26 383.723 339.846 384.394 340.038C385.066 340.229 385.461 340.953 385.278 341.654C384.181 345.852 383.348 349.824 382.706 353.68L382.55 354.641C381.501 361.16 381.572 363.449 382.65 365.34C383.657 367.107 385.314 368.366 387.447 369.201C388.911 369.774 390.185 370.035 391.769 370.224C398.237 371.006 405.509 368.003 407.08 363.411L407.121 363.281C407.691 361.288 406.328 357.341 399.816 345.099L398.561 342.771C398.011 341.757 397.506 340.836 397.028 339.976C396.679 339.347 396.883 338.542 397.486 338.177Z" fill="black"/>
<path d="M365.221 333.997C365.886 333.781 366.592 334.168 366.799 334.862C368.641 341.032 370.928 347.169 373.739 353.274C377.343 361.114 381.519 368.284 386.145 374.857C386.557 375.443 386.436 376.267 385.876 376.697C385.315 377.128 384.526 377.002 384.114 376.416C379.398 369.715 375.141 362.405 371.467 354.414C368.601 348.19 366.27 341.934 364.393 335.645C364.186 334.951 364.557 334.213 365.221 333.997Z" fill="black"/>
<path d="M379.941 358.835C380.531 358.449 381.308 358.636 381.678 359.252C382.047 359.868 381.868 360.68 381.278 361.066C380.334 361.682 379.41 362.297 378.503 362.912L377.601 363.528C358.587 376.474 341.125 392.227 326.31 409.825L325.012 411.378C323.269 413.479 321.566 415.573 319.356 418.329L312.197 427.293C304.675 436.684 300.204 441.983 294.903 447.62C287.61 455.373 280.514 461.617 272.977 466.678L271.567 467.612C256.202 477.546 235.345 481.316 219.006 476.599C218.335 476.405 217.942 475.681 218.127 474.98C218.313 474.28 219.007 473.869 219.678 474.062C235.312 478.576 255.451 474.936 270.225 465.385L270.87 464.958C284.534 455.963 294.105 445.842 311.85 423.62L317.122 417.015C319.695 413.804 321.582 411.486 323.588 409.077C338.461 391.224 356.024 375.223 375.174 362.042L376.22 361.326C377.427 360.497 378.667 359.667 379.941 358.835Z" fill="black"/>
<path d="M223.107 438.695C223.801 438.636 224.409 439.175 224.465 439.9C226.167 461.702 221.546 480.727 209.761 495.515L208.987 496.477C206.287 499.794 203.639 502.672 198.991 507.423L194.608 511.874C182.443 524.263 177.403 530.601 173.329 540.069C167.707 553.157 167.839 568.345 173.305 582.447C173.567 583.121 173.255 583.888 172.61 584.161C171.965 584.433 171.23 584.108 170.969 583.435C165.254 568.69 165.115 552.76 171.03 538.991L171.342 538.276C175.634 528.573 181.016 521.984 193.75 509.075L195.839 506.958C201.791 500.91 204.648 497.816 207.824 493.831C219.149 479.62 223.604 461.275 221.953 440.114C221.897 439.389 222.413 438.754 223.107 438.695Z" fill="black"/>
<path d="M262.338 389.7C267.413 387.029 270.266 386.701 272.181 387.66C275.372 389.231 277.036 393.878 276.944 398.505C276.934 399.101 276.892 399.639 276.818 400.083C276.728 400.884 276.558 401.666 276.311 402.459C275.22 405.97 273.045 408.641 268.862 412.325L265.478 415.256L264.74 415.91C259.808 420.331 257.181 423.837 255.808 428.707L255.71 429.066C255.026 431.645 255.279 434.59 256.992 445.455L263.499 486.237L263.844 488.264C267 506.982 268.309 520.234 267.474 536.068C266.684 550.96 263.647 566.522 257.135 583.432C256.876 584.106 256.142 584.433 255.496 584.162C254.85 583.891 254.537 583.124 254.797 582.45C261.2 565.823 264.182 550.542 264.957 535.922C265.764 520.618 264.532 507.716 261.526 489.696L260.622 484.288L254.301 444.585C252.711 434.389 252.491 431.442 253.25 428.485L253.281 428.363C254.823 422.561 257.832 418.574 263.478 413.574L264.943 412.3C265.793 411.565 266.855 410.649 267.237 410.313L267.896 409.725C271.31 406.643 273.061 404.393 273.914 401.646C274.112 401.011 274.245 400.398 274.324 399.709C274.384 399.34 274.416 398.931 274.424 398.455C274.498 394.748 273.177 391.06 271.098 390.037C270.715 389.845 270.263 389.758 269.403 389.857C267.988 390.019 266.041 390.698 263.474 392.05C261.7 392.987 260.201 393.941 258.828 394.98L257.812 395.773C257.321 396.167 256.899 396.53 256.221 397.145L254.425 398.799C252.158 400.903 250.63 402.11 248.464 403.348C246.5 404.47 244.912 405.068 243.07 405.452L242.698 405.526C242.332 405.596 241.978 405.655 241.478 405.733L240.591 405.87C238.391 406.216 237.382 406.437 235.609 407.005C229.21 409.05 223.612 413.01 218.824 418.238C217.063 420.16 215.511 422.15 214.166 424.13C213.261 425.461 212.592 426.569 212.068 427.522C209.07 432.94 206.986 439.54 206.229 445.453C205.569 450.616 206.112 454.388 207.146 454.897C207.788 455.214 209.526 454.271 211.804 452.125C212.597 451.379 213.435 450.513 214.317 449.538L214.912 448.873C215.816 447.85 216.654 446.844 217.94 445.267C219.501 443.355 220.903 441.352 222.144 439.302C223.774 436.615 225.056 433.979 226.156 431.249C226.426 430.579 227.164 430.264 227.806 430.546C228.447 430.828 228.749 431.599 228.479 432.269C227.328 435.126 225.984 437.89 224.274 440.709C222.972 442.862 221.499 444.965 219.859 446.974L218.836 448.222C217.821 449.451 217.066 450.332 216.149 451.345C215.223 452.368 214.339 453.282 213.492 454.08L213.029 454.509C210.202 457.076 207.945 458.201 206.07 457.278C201.256 454.906 203.328 438.318 209.69 426.563L209.884 426.208C210.444 425.189 211.156 424.011 212.111 422.606C213.524 420.527 215.152 418.438 217.002 416.419C222.068 410.888 228.019 406.678 234.87 404.488L235.397 404.323C236.921 403.854 237.991 403.624 239.874 403.321L241.648 403.043C241.865 403.007 242.055 402.973 242.247 402.937C243.992 402.605 245.402 402.097 247.254 401.039C249.113 399.976 250.457 398.937 252.403 397.153L254.601 395.129C255.489 394.322 255.962 393.927 256.705 393.346L256.95 393.156C258.537 391.915 260.27 390.793 262.338 389.7Z" fill="black"/>
<path d="M248.788 517.942C249.483 517.896 250.081 518.448 250.125 519.173C250.653 527.942 250.111 536.995 248.123 546.369C245.067 560.756 239.247 573.09 231.708 583.724C231.294 584.308 230.504 584.431 229.945 583.998C229.386 583.566 229.268 582.742 229.682 582.158C237.024 571.803 242.689 559.796 245.662 545.8C247.596 536.681 248.123 527.873 247.609 519.338C247.566 518.613 248.093 517.988 248.788 517.942Z" fill="black"/>
<path d="M226.87 530.327C227.566 530.307 228.146 530.879 228.166 531.606C228.391 539.912 227.288 548.476 224.138 557.325C221.54 564.619 217.871 571.069 213.403 576.75C211.995 578.533 210.548 580.196 209.048 581.771C208.338 582.505 207.625 583.216 206.909 583.907C206.398 584.4 205.601 584.368 205.129 583.834C204.656 583.301 204.687 582.468 205.198 581.974C205.893 581.303 206.586 580.612 207.269 579.907C208.706 578.397 210.101 576.795 211.456 575.078C215.753 569.615 219.28 563.416 221.776 556.408C224.803 547.904 225.863 539.67 225.646 531.68C225.627 530.954 226.175 530.348 226.87 530.327Z" fill="black"/>
<path d="M684.74 581.625C685.436 581.625 686 582.214 686 582.94C686 583.625 685.5 584.187 684.861 584.25L684.74 584.256H71.3795C70.6835 584.256 70.1193 583.667 70.1193 582.94C70.1193 582.256 70.6191 581.694 71.2581 581.631L71.3795 581.625H684.74Z" fill="black"/>
<path d="M176.381 256.007L131.645 291.587C130.983 292.114 130.983 293.155 131.645 293.681L176.381 329.262C176.832 329.621 177.457 329.621 177.908 329.262L222.645 293.681C223.307 293.155 223.307 292.114 222.645 291.587L177.908 256.007C177.457 255.648 176.832 255.648 176.381 256.007ZM177.145 258.707L219.802 292.634L177.145 326.561L134.487 292.634L177.145 258.707Z" fill="black"/>
<path d="M221.882 291.318C222.537 291.318 223.075 291.84 223.136 292.508L223.142 292.634V344.394C223.142 344.759 222.997 345.106 222.745 345.353L222.645 345.441L177.908 381.022C177.492 381.353 176.928 381.379 176.488 381.098L176.381 381.022L131.645 345.441C131.367 345.22 131.191 344.889 131.155 344.53L131.148 344.394V292.634C131.148 291.908 131.712 291.318 132.408 291.318C133.063 291.318 133.602 291.84 133.663 292.508L133.669 292.634L133.668 343.742L177.145 378.321L220.621 343.742L220.621 292.634C220.621 291.95 221.121 291.388 221.76 291.324L221.882 291.318Z" fill="black"/>
<path d="M177.145 326.899C177.8 326.899 178.338 327.421 178.399 328.088L178.405 328.215V379.974C178.405 380.701 177.841 381.29 177.145 381.29C176.49 381.29 175.951 380.768 175.89 380.101L175.885 379.974V328.215C175.885 327.488 176.449 326.899 177.145 326.899Z" fill="black"/>
<path fill-rule="evenodd" clip-rule="evenodd" d="M177.145 328.215L221.881 292.634V344.393L177.145 379.974V328.215Z" fill="black"/>
<path d="M239.42 51.4144L194.683 86.9944C194.021 87.5211 194.021 88.5616 194.683 89.0883L239.42 124.669C239.871 125.028 240.496 125.028 240.947 124.669L285.684 89.0883C286.346 88.5616 286.346 87.5211 285.684 86.9944L240.947 51.4144C240.496 51.0557 239.871 51.0557 239.42 51.4144ZM240.183 54.1149L282.84 88.0411L240.183 121.967L197.526 88.0411L240.183 54.1149Z" fill="black"/>
<path d="M284.92 86.7251C285.575 86.7251 286.114 87.247 286.175 87.9143L286.18 88.0411V139.802C286.18 140.167 286.035 140.513 285.783 140.761L285.684 140.849L240.947 176.429C240.531 176.76 239.966 176.785 239.527 176.505L239.42 176.429L194.683 140.849C194.405 140.627 194.229 140.297 194.193 139.938L194.187 139.802V88.0411C194.187 87.3143 194.751 86.7251 195.447 86.7251C196.102 86.7251 196.64 87.247 196.701 87.9143L196.707 88.0411L196.707 139.15L240.183 173.727L283.66 139.149L283.66 88.0411C283.66 87.357 284.16 86.7949 284.799 86.7311L284.92 86.7251Z" fill="black"/>
<path d="M240.184 122.305C240.839 122.305 241.377 122.827 241.438 123.495L241.444 123.621V175.382C241.444 176.109 240.88 176.698 240.184 176.698C239.529 176.698 238.99 176.176 238.929 175.509L238.923 175.382V123.621C238.923 122.894 239.488 122.305 240.184 122.305Z" fill="black"/>
<path fill-rule="evenodd" clip-rule="evenodd" d="M240.184 123.622L195.447 88.0411V139.801L240.184 175.382V123.622Z" fill="black"/>
<path d="M577.412 122.575L532.676 158.156C532.013 158.682 532.013 159.723 532.676 160.25L577.412 195.831C577.863 196.189 578.488 196.189 578.939 195.831L623.676 160.25C624.338 159.723 624.338 158.682 623.676 158.156L578.939 122.575C578.488 122.216 577.863 122.216 577.412 122.575ZM578.175 125.275L620.833 159.202L578.175 193.129L535.518 159.202L578.175 125.275Z" fill="black"/>
<path fill-rule="evenodd" clip-rule="evenodd" d="M533.439 159.203L578.176 194.784L622.912 159.203L578.176 123.621L533.439 159.203Z" fill="black"/>
<path d="M622.912 157.886C623.567 157.886 624.106 158.408 624.167 159.076L624.173 159.202V210.962C624.173 211.327 624.027 211.674 623.775 211.921L623.676 212.009L578.939 247.59C578.523 247.921 577.958 247.947 577.519 247.667L577.412 247.59L532.676 212.009C532.397 211.788 532.221 211.457 532.186 211.098L532.179 210.962V159.202C532.179 158.476 532.743 157.886 533.439 157.886C534.094 157.886 534.633 158.408 534.694 159.076L534.699 159.202L534.699 210.31L578.176 244.889L621.652 210.31L621.652 159.202C621.652 158.518 622.152 157.956 622.791 157.892L622.912 157.886Z" fill="black"/>
<path d="M578.176 193.467C578.831 193.467 579.369 193.989 579.43 194.656L579.436 194.783V246.543C579.436 247.27 578.872 247.859 578.176 247.859C577.521 247.859 576.983 247.337 576.922 246.67L576.916 246.543V194.783C576.916 194.056 577.48 193.467 578.176 193.467Z" fill="black"/>
<path d="M476.165 224.982C476.703 224.522 477.497 224.603 477.939 225.165C478.352 225.692 478.309 226.454 477.859 226.927L477.763 227.017L465.241 237.743C462.312 240.252 458.325 240.922 454.799 239.518L454.529 239.406L444.437 235.052L432.138 235.422C431.483 235.442 430.931 234.936 430.851 234.271L430.842 234.144C430.823 233.46 431.307 232.884 431.944 232.801L432.065 232.791L444.634 232.414C444.767 232.41 444.899 232.428 445.026 232.467L445.151 232.513L455.491 236.973C458.141 238.117 461.167 237.694 463.433 235.882L463.643 235.708L476.165 224.982Z" fill="black"/>
<path d="M453.347 210.997C455.223 210.047 457.399 210.01 459.298 210.885L459.534 210.999L469.266 215.938C469.892 216.256 470.153 217.043 469.848 217.697C469.562 218.312 468.877 218.589 468.276 218.355L468.164 218.305L458.432 213.366C457.244 212.764 455.868 212.73 454.659 213.265L454.447 213.365L442.086 219.63C441.957 219.695 441.819 219.737 441.678 219.754L441.536 219.762H432.58C431.884 219.762 431.32 219.173 431.32 218.446C431.32 217.762 431.819 217.2 432.458 217.136L432.58 217.13L441.246 217.129L453.347 210.997Z" fill="black"/>
<path d="M499.698 199.565C500.265 199.144 501.052 199.282 501.455 199.875C501.835 200.432 501.74 201.193 501.254 201.631L501.159 201.71L459.129 232.925C458.562 233.346 457.775 233.208 457.372 232.615C456.992 232.058 457.087 231.297 457.573 230.859L457.668 230.78L499.698 199.565Z" fill="black"/>
<path d="M487.896 123.585C504.719 113.899 520.839 113.298 536.212 123.465C536.8 123.854 536.975 124.667 536.602 125.281C536.23 125.895 535.451 126.078 534.863 125.689C520.327 116.075 505.179 116.639 489.113 125.89C476.032 133.422 463.015 146.162 448.485 164.314C448.039 164.871 447.244 164.945 446.71 164.479C446.176 164.013 446.105 163.183 446.551 162.626L447.809 161.063C462.02 143.51 474.865 131.088 487.896 123.585Z" fill="black"/>
<path d="M338.07 280.834C338.652 280.435 339.433 280.604 339.815 281.212C340.197 281.82 340.035 282.635 339.453 283.034C311.751 302.024 281.286 313.336 252.563 313.878C251.867 313.891 251.293 313.312 251.28 312.585C251.268 311.859 251.822 311.259 252.518 311.246C280.723 310.714 310.74 299.568 338.07 280.834Z" fill="black"/>
<path d="M171.928 112.006C172.544 111.667 173.306 111.914 173.63 112.557C173.954 113.2 173.718 113.996 173.102 114.335C134.613 135.487 120.396 188.351 138.625 233.065C138.897 233.733 138.599 234.506 137.959 234.791C137.319 235.076 136.578 234.764 136.306 234.096C117.59 188.187 132.207 133.835 171.928 112.006Z" fill="black"/>
<path d="M488.239 340.351C488.894 340.351 489.432 340.873 489.493 341.54L489.499 341.667V445.525C489.499 446.252 488.935 446.841 488.239 446.841C487.584 446.841 487.046 446.319 486.985 445.652L486.979 445.525V341.667C486.979 340.94 487.543 340.351 488.239 340.351Z" fill="black"/>
<path d="M523.332 340.351C523.987 340.351 524.526 340.873 524.587 341.54L524.592 341.667V445.525C524.592 446.252 524.028 446.841 523.332 446.841C522.677 446.841 522.139 446.319 522.078 445.652L522.072 445.525V341.667C522.072 340.94 522.636 340.351 523.332 340.351Z" fill="black"/>
<path d="M558.424 340.351C559.079 340.351 559.618 340.873 559.679 341.54L559.685 341.667V445.525C559.685 446.252 559.12 446.841 558.424 446.841C557.769 446.841 557.231 446.319 557.17 445.652L557.164 445.525V341.667C557.164 340.94 557.728 340.351 558.424 340.351Z" fill="black"/>
<path d="M593.524 340.351C594.179 340.351 594.717 340.873 594.779 341.54L594.784 341.667V445.525C594.784 446.252 594.22 446.841 593.524 446.841C592.869 446.841 592.331 446.319 592.27 445.652L592.264 445.525V341.667C592.264 340.94 592.828 340.351 593.524 340.351Z" fill="black"/>
<path d="M628.616 340.351C629.271 340.351 629.81 340.873 629.871 341.54L629.876 341.667V445.525C629.876 446.252 629.312 446.841 628.616 446.841C627.961 446.841 627.423 446.319 627.362 445.652L627.356 445.525V341.667C627.356 340.94 627.92 340.351 628.616 340.351Z" fill="black"/>
<path d="M663.708 340.351C664.363 340.351 664.902 340.873 664.963 341.54L664.969 341.667V445.525C664.969 446.252 664.404 446.841 663.708 446.841C663.053 446.841 662.515 446.319 662.454 445.652L662.448 445.525V341.667C662.448 340.94 663.012 340.351 663.708 340.351Z" fill="black"/>
<path d="M663.708 340.351C664.404 340.351 664.969 340.94 664.969 341.667C664.969 342.351 664.469 342.913 663.83 342.977L663.708 342.983H488.239C487.543 342.983 486.979 342.394 486.979 341.667C486.979 340.983 487.479 340.421 488.118 340.357L488.239 340.351H663.708Z" fill="black"/>
<path d="M663.708 361.126C664.404 361.126 664.969 361.715 664.969 362.442C664.969 363.126 664.469 363.688 663.83 363.752L663.708 363.758H488.239C487.543 363.758 486.979 363.169 486.979 362.442C486.979 361.758 487.479 361.196 488.118 361.132L488.239 361.126H663.708Z" fill="black"/>
<path d="M663.708 381.892C664.404 381.892 664.969 382.481 664.969 383.208C664.969 383.892 664.469 384.454 663.83 384.518L663.708 384.524H488.239C487.543 384.524 486.979 383.934 486.979 383.208C486.979 382.524 487.479 381.962 488.118 381.898L488.239 381.892H663.708Z" fill="black"/>
<path d="M663.708 402.668C664.404 402.668 664.969 403.257 664.969 403.984C664.969 404.668 664.469 405.23 663.83 405.294L663.708 405.3H488.239C487.543 405.3 486.979 404.711 486.979 403.984C486.979 403.3 487.479 402.738 488.118 402.674L488.239 402.668H663.708Z" fill="black"/>
<path d="M663.708 423.434C664.404 423.434 664.969 424.023 664.969 424.75C664.969 425.434 664.469 425.996 663.83 426.06L663.708 426.066H488.239C487.543 426.066 486.979 425.477 486.979 424.75C486.979 424.066 487.479 423.504 488.118 423.44L488.239 423.434H663.708Z" fill="black"/>
<path d="M663.708 444.209C664.404 444.209 664.969 444.798 664.969 445.525C664.969 446.209 664.469 446.771 663.83 446.835L663.708 446.841H488.239C487.543 446.841 486.979 446.252 486.979 445.525C486.979 444.841 487.479 444.279 488.118 444.215L488.239 444.209H663.708Z" fill="black"/>
<path fill-rule="evenodd" clip-rule="evenodd" d="M523.332 383.208H558.425V362.442H523.332V383.208Z" fill="black"/>
<path fill-rule="evenodd" clip-rule="evenodd" d="M593.523 403.979H628.616V383.213H593.523V403.979Z" fill="black"/>
<path fill-rule="evenodd" clip-rule="evenodd" d="M488.24 445.516H523.332V424.75H488.24V445.516Z" fill="black"/>
<path fill-rule="evenodd" clip-rule="evenodd" d="M486.878 507.404H665.185V467.111H486.878V507.404Z" fill="black"/>
<path fill-rule="evenodd" clip-rule="evenodd" d="M512.013 483.678V481.268C513.081 481.218 513.829 481.143 514.256 481.043C514.937 480.886 515.492 480.571 515.918 480.099C516.211 479.777 516.433 479.346 516.583 478.806C516.67 478.483 516.714 478.243 516.714 478.086H519.546V496.106H516.071V483.678H512.013Z" fill="#FF7600"/>
<path fill-rule="evenodd" clip-rule="evenodd" d="M531.76 492.024C532.085 493.122 532.751 493.67 533.759 493.67C534.766 493.67 535.426 493.122 535.74 492.024C536.053 490.926 536.21 489.342 536.21 487.27C536.21 485.099 536.053 483.492 535.74 482.448C535.426 481.404 534.766 480.882 533.759 480.882C532.751 480.882 532.085 481.404 531.76 482.448C531.434 483.492 531.272 485.099 531.272 487.27C531.272 489.342 531.434 490.926 531.76 492.024ZM538.383 480.385C539.267 482.001 539.709 484.296 539.709 487.27C539.709 490.245 539.267 492.536 538.383 494.143C537.497 495.751 535.956 496.554 533.759 496.554C531.562 496.554 530.02 495.751 529.135 494.143C528.25 492.536 527.809 490.245 527.809 487.27C527.809 484.296 528.25 482.001 529.135 480.385C530.02 478.77 531.562 477.962 533.759 477.962C535.956 477.962 537.497 478.77 538.383 480.385Z" fill="#FF7600"/>
<path fill-rule="evenodd" clip-rule="evenodd" d="M545.46 483.678V481.268C546.528 481.218 547.275 481.143 547.704 481.043C548.383 480.886 548.938 480.571 549.365 480.099C549.657 479.777 549.88 479.346 550.03 478.806C550.117 478.483 550.16 478.243 550.16 478.086H552.992V496.106H549.518V483.678H545.46Z" fill="#FF7600"/>
<path fill-rule="evenodd" clip-rule="evenodd" d="M565.206 492.024C565.532 493.122 566.198 493.67 567.206 493.67C568.213 493.67 568.872 493.122 569.187 492.024C569.5 490.926 569.657 489.342 569.657 487.27C569.657 485.099 569.5 483.492 569.187 482.448C568.872 481.404 568.213 480.882 567.206 480.882C566.198 480.882 565.532 481.404 565.206 482.448C564.88 483.492 564.718 485.099 564.718 487.27C564.718 489.342 564.88 490.926 565.206 492.024ZM571.829 480.385C572.714 482.001 573.156 484.296 573.156 487.27C573.156 490.245 572.714 492.536 571.829 494.143C570.944 495.751 569.403 496.554 567.206 496.554C565.008 496.554 563.467 495.751 562.581 494.143C561.697 492.536 561.256 490.245 561.256 487.27C561.256 484.296 561.697 482.001 562.581 480.385C563.467 478.77 565.008 477.962 567.206 477.962C569.403 477.962 570.944 478.77 571.829 480.385Z" fill="#FF7600"/>
<path fill-rule="evenodd" clip-rule="evenodd" d="M578.906 483.678V481.268C579.974 481.218 580.721 481.143 581.15 481.043C581.83 480.886 582.385 480.571 582.811 480.099C583.104 479.777 583.326 479.346 583.476 478.806C583.564 478.483 583.607 478.243 583.607 478.086H586.439V496.106H582.964V483.678H578.906Z" fill="#FF7600"/>
<path fill-rule="evenodd" clip-rule="evenodd" d="M598.653 492.024C598.979 493.122 599.645 493.67 600.652 493.67C601.659 493.67 602.32 493.122 602.633 492.024C602.946 490.926 603.104 489.342 603.104 487.27C603.104 485.099 602.946 483.492 602.633 482.448C602.32 481.404 601.659 480.882 600.652 480.882C599.645 480.882 598.979 481.404 598.653 482.448C598.327 483.492 598.164 485.099 598.164 487.27C598.164 489.342 598.327 490.926 598.653 492.024ZM605.275 480.385C606.16 482.001 606.603 484.296 606.603 487.27C606.603 490.245 606.16 492.536 605.275 494.143C604.391 495.751 602.849 496.554 600.652 496.554C598.455 496.554 596.913 495.751 596.029 494.143C595.143 492.536 594.702 490.245 594.702 487.27C594.702 484.296 595.143 482.001 596.029 480.385C596.913 478.77 598.455 477.962 600.652 477.962C602.849 477.962 604.391 478.77 605.275 480.385Z" fill="#FF7600"/>
<path fill-rule="evenodd" clip-rule="evenodd" d="M612.353 483.678V481.268C613.42 481.218 614.169 481.143 614.597 481.043C615.276 480.886 615.832 480.571 616.258 480.099C616.551 479.777 616.773 479.346 616.923 478.806C617.01 478.483 617.054 478.243 617.054 478.086H619.886V496.106H616.411V483.678H612.353Z" fill="#FF7600"/>
<path d="M639.549 487.27C639.549 484.334 639.11 482.135 638.283 480.625L639.549 487.27ZM639.549 487.27C639.549 490.208 639.11 492.401 638.284 493.902M639.549 487.27L638.284 493.902M638.284 493.902C637.506 495.315 636.156 496.054 634.099 496.054M638.284 493.902L634.099 496.054M634.099 496.054C632.041 496.054 630.691 495.315 629.913 493.902M634.099 496.054L629.913 493.902M629.913 493.902C629.087 492.401 628.649 490.208 628.649 487.27M629.913 493.902L628.649 487.27M628.649 487.27C628.649 484.334 629.087 482.135 629.914 480.625M628.649 487.27L629.914 480.625M629.914 480.625C630.692 479.204 632.042 478.462 634.099 478.462M629.914 480.625L634.099 478.462M634.099 478.462C636.155 478.462 637.505 479.204 638.283 480.625L634.099 478.462ZM631.621 492.166C631.802 492.78 632.094 493.289 632.526 493.645C632.963 494.005 633.5 494.17 634.099 494.17C634.698 494.17 635.234 494.005 635.669 493.643C636.098 493.287 636.385 492.775 636.56 492.161C636.893 490.996 637.05 489.357 637.05 487.27C637.05 485.089 636.894 483.421 636.558 482.304C636.381 481.713 636.091 481.222 635.66 480.881C635.225 480.538 634.692 480.382 634.099 480.382C633.506 480.382 632.972 480.537 632.535 480.88C632.102 481.219 631.807 481.708 631.623 482.299C631.272 483.418 631.111 485.089 631.111 487.27C631.111 489.357 631.273 490.999 631.621 492.166Z" fill="#FF7600" stroke="#FF7600"/>
<path d="M152.04 468.033C152.516 467.428 153.38 467.394 153.9 467.932L153.987 468.033L162.272 478.561C162.714 479.122 162.636 479.952 162.098 480.413C161.594 480.846 160.865 480.801 160.412 480.332L160.325 480.232L153.013 470.94L145.701 480.232C145.225 480.837 144.361 480.871 143.842 480.333L143.754 480.232L136.444 470.941L129.134 480.232C128.658 480.837 127.794 480.871 127.275 480.333L127.187 480.232L119.874 470.94L112.559 480.232C112.083 480.837 111.219 480.87 110.7 480.333L110.612 480.232L103.299 470.94L95.9814 480.232C95.5053 480.837 94.6418 480.87 94.1227 480.333L94.0348 480.232L85.7426 469.704C85.3005 469.143 85.3778 468.313 85.9153 467.852C86.4193 467.419 87.1488 467.463 87.6023 467.933L87.6892 468.032L95.0075 477.324L102.326 468.032C102.802 467.428 103.666 467.394 104.185 467.932L104.273 468.033L111.585 477.324L118.901 468.032C119.377 467.428 120.241 467.394 120.76 467.932L120.848 468.033L128.16 477.324L135.471 468.033C135.947 467.428 136.811 467.394 137.33 467.932L137.418 468.033L144.727 477.324L152.04 468.033Z" fill="black"/>
<path d="M85.9153 489.398C86.4193 488.966 87.1488 489.01 87.6023 489.479L87.6892 489.579L95.0075 498.871L102.326 489.579C102.802 488.974 103.666 488.941 104.185 489.478L104.273 489.579L111.586 498.871L118.901 489.579C119.377 488.974 120.241 488.941 120.76 489.478L120.848 489.579L128.16 498.87L135.471 489.579C135.947 488.974 136.811 488.941 137.33 489.479L137.418 489.579L144.727 498.87L152.04 489.579C152.516 488.974 153.38 488.941 153.9 489.478L153.987 489.579L162.272 500.107C162.714 500.669 162.636 501.498 162.098 501.96C161.594 502.392 160.865 502.348 160.412 501.878L160.325 501.779L153.013 492.487L145.701 501.779C145.225 502.384 144.361 502.417 143.842 501.879L143.754 501.778L136.444 492.488L129.134 501.778C128.658 502.384 127.794 502.417 127.275 501.879L127.187 501.779L119.874 492.487L112.559 501.779C112.083 502.384 111.219 502.417 110.7 501.879L110.612 501.779L103.299 492.487L95.9814 501.779C95.5053 502.383 94.6418 502.417 94.1227 501.88L94.0348 501.779L85.7426 491.251C85.3005 490.689 85.3778 489.86 85.9153 489.398Z" fill="black"/>
<path d="M526.491 554.663C527.146 554.663 527.684 555.185 527.745 555.852L527.751 555.979V582.061C527.751 582.788 527.187 583.377 526.491 583.377C525.836 583.377 525.298 582.855 525.237 582.188L525.231 582.061V555.979C525.231 555.252 525.795 554.663 526.491 554.663Z" fill="black"/>
<path d="M533.764 566.013C534.1 565.377 534.867 565.146 535.476 565.497C536.05 565.827 536.279 566.556 536.024 567.171L535.97 567.285L527.844 582.657L527.73 582.888L527.587 583.151C527.244 583.783 526.475 584.005 525.87 583.647C525.3 583.31 525.078 582.579 525.34 581.966L525.395 581.853L525.509 581.646L525.615 581.427L533.764 566.013Z" fill="black"/>
<path d="M513.923 566.315C514.435 565.893 515.164 565.952 515.608 566.431L515.693 566.533L527.339 581.939L527.473 582.114C527.909 582.68 527.823 583.508 527.281 583.964C526.772 584.391 526.043 584.338 525.595 583.863L525.509 583.763L525.416 583.639L525.359 583.569L513.715 568.163C513.283 567.593 513.377 566.765 513.923 566.315Z" fill="black"/>
<path d="M114.76 554.185C114.898 553.473 115.563 553.013 116.245 553.157C116.887 553.293 117.315 553.917 117.248 554.583L117.23 554.709L111.975 581.745L111.975 582.061C111.975 582.745 111.476 583.307 110.837 583.371L110.715 583.377C110.06 583.377 109.522 582.855 109.461 582.188L109.455 582.061V581.613L109.461 581.482L109.48 581.352L114.76 554.185Z" fill="black"/>
<path d="M120.46 571.939C120.991 571.47 121.786 571.54 122.236 572.095C122.657 572.615 122.625 573.378 122.181 573.857L122.087 573.949L111.949 582.897L111.812 583.151C111.489 583.746 110.788 583.978 110.202 583.704L110.094 583.647C109.524 583.31 109.302 582.579 109.564 581.967L109.619 581.853L109.731 581.65L109.815 581.475C109.872 581.355 109.947 581.246 110.035 581.15L110.129 581.058L120.46 571.939Z" fill="black"/>
<path d="M98.1473 566.315C98.6594 565.893 99.3879 565.952 99.8323 566.431L99.9172 566.533L111.563 581.939L111.697 582.114C112.133 582.68 112.047 583.508 111.505 583.964C110.996 584.391 110.267 584.338 109.819 583.863L109.733 583.763L109.64 583.639L109.583 583.569L97.9388 568.163C97.5076 567.593 97.601 566.765 98.1473 566.315Z" fill="black"/>
<path d="M651.823 115.593C652.237 115.008 653.026 114.885 653.586 115.317C654.113 115.724 654.248 116.478 653.917 117.052L653.85 117.158L635.616 142.903C635.202 143.487 634.413 143.61 633.854 143.178C633.327 142.772 633.191 142.018 633.522 141.443L633.59 141.338L651.823 115.593Z" fill="black"/>
<path d="M640.672 167.299C640.902 166.659 641.56 166.316 642.179 166.492L642.295 166.531L670.994 177.809C671.646 178.065 671.975 178.824 671.73 179.504C671.499 180.144 670.842 180.487 670.222 180.311L670.106 180.272L641.407 168.994C640.756 168.738 640.427 167.979 640.672 167.299Z" fill="black"/>
<path d="M674.956 142.247C675.623 142.042 676.324 142.44 676.521 143.137C676.707 143.793 676.38 144.48 675.784 144.73L675.669 144.772L643.477 154.695C642.809 154.901 642.109 154.502 641.912 153.805C641.726 153.149 642.053 152.462 642.649 152.212L642.763 152.171L674.956 142.247Z" fill="black"/>
<path d="M113.679 297.892C114.367 297.785 115.009 298.28 115.112 298.999C115.209 299.675 114.794 300.309 114.171 300.47L114.052 300.495L83.7262 305.235C83.0379 305.343 82.3964 304.847 82.2934 304.129C82.1964 303.452 82.611 302.819 83.2339 302.657L83.3531 302.632L113.679 297.892Z" fill="black"/>
<path d="M112.927 245.344C113.524 245.062 114.22 245.305 114.54 245.887L114.595 246L127.251 275.166C127.538 275.828 127.257 276.608 126.623 276.908C126.027 277.191 125.33 276.947 125.011 276.366L124.955 276.253L112.299 247.086C112.012 246.424 112.293 245.644 112.927 245.344Z" fill="black"/>
<path d="M84.9139 267.521C85.227 266.92 85.9233 266.676 86.5138 266.939L86.6232 266.994L116.105 283.749C116.717 284.096 116.943 284.895 116.61 285.534C116.297 286.134 115.6 286.379 115.01 286.116L114.901 286.06L85.4184 269.306C84.8071 268.959 84.5812 268.16 84.9139 267.521Z" fill="black"/>
<path fill-rule="evenodd" clip-rule="evenodd" d="M238.637 414.525C238.637 415.934 237.544 417.077 236.194 417.077C234.844 417.077 233.751 415.934 233.751 414.525C233.751 413.116 234.844 411.974 236.194 411.974C237.544 411.974 238.637 413.116 238.637 414.525Z" fill="black"/>
<path fill-rule="evenodd" clip-rule="evenodd" d="M275.684 398.483C275.676 398.983 275.642 399.465 275.567 399.93C274.18 400.202 272.693 400.343 271.139 400.343C264.494 400.343 258.957 397.711 257.705 394.21C259.108 393.113 260.763 392.008 262.906 390.876C268.904 387.718 270.954 388.507 271.643 388.85C274.634 390.324 275.752 395.096 275.684 398.483Z" fill="black"/>
<path fill-rule="evenodd" clip-rule="evenodd" d="M216.507 582.941H207.944C208.018 582.173 208.1 581.406 208.183 580.638C209.681 579.065 211.252 577.28 212.85 575.255C213.935 576.148 214.992 577.386 215.709 579.084C216.287 580.475 216.49 581.809 216.507 582.941Z" fill="black"/>
<path fill-rule="evenodd" clip-rule="evenodd" d="M239.873 582.941H231.31C231.384 582.173 231.466 581.406 231.549 580.638C233.047 579.065 234.618 577.28 236.216 575.255C237.3 576.148 238.357 577.386 239.074 579.084C239.653 580.475 239.855 581.809 239.873 582.941Z" fill="black"/>
<path fill-rule="evenodd" clip-rule="evenodd" d="M263.693 582.94H255.129C256.842 579.526 257.855 577.299 259.188 574.516C260.272 575.409 262.176 577.385 262.893 579.084C263.472 580.474 263.674 581.809 263.693 582.94Z" fill="black"/>
<path fill-rule="evenodd" clip-rule="evenodd" d="M396.292 132.461C394.778 132.094 393.186 131.654 391.531 131.127C390.332 130.746 389.189 130.346 388.1 129.936C388.223 131.391 388.734 133.803 389.733 135.728C391.391 138.92 393.561 140.35 394.733 141.52C395.511 137.292 395.515 136.199 396.292 132.461Z" fill="black"/>
<path d="M386.845 130.051C387.01 132.013 387.658 134.492 388.625 136.355C389.193 137.449 389.847 138.413 390.591 139.294C391.164 139.973 391.747 140.558 392.474 141.215L393.504 142.132C393.649 142.264 393.762 142.37 393.862 142.471C394.584 143.191 395.782 142.792 395.971 141.768L396.244 140.247C396.313 139.847 396.378 139.45 396.457 138.947L396.807 136.696C397.026 135.284 397.216 134.217 397.523 132.74C397.669 132.036 397.247 131.341 396.576 131.179C395.028 130.804 393.468 130.368 391.898 129.868C390.758 129.505 389.636 129.115 388.527 128.698C387.662 128.372 386.764 129.094 386.845 130.051ZM389.7 131.9L390.281 132.098C390.574 132.196 390.868 132.292 391.163 132.386L392.137 132.688C392.785 132.885 393.432 133.071 394.077 133.246L394.807 133.439L394.777 133.598C394.636 134.339 394.517 135.03 394.393 135.801L393.895 138.994L393.376 138.491C393.009 138.129 392.683 137.793 392.482 137.554C391.859 136.817 391.315 136.015 390.84 135.1C390.419 134.288 390.063 133.302 389.803 132.312L389.7 131.9Z" fill="black"/>
</svg>
