<svg width="77" height="64" viewBox="0 0 77 64" fill="none" xmlns="http://www.w3.org/2000/svg">
<path d="M18.0469 10C16.4549 10.0094 14.9314 10.5392 13.8057 11.4749C12.68 12.4105 12.0426 13.6768 12.0312 15V49C12.0312 51.734 14.7575 54 18.0469 54H58.9531C62.2425 54 64.9688 51.734 64.9688 49V15C64.9688 12.266 62.2425 10 58.9531 10H18.0469ZM18.0469 14H58.9531C59.6389 14 60.1562 14.43 60.1562 15V49C60.1562 49.57 59.6389 50 58.9531 50H18.0469C17.8879 50.003 17.7298 49.9792 17.5822 49.93C17.4346 49.8808 17.3005 49.8073 17.1881 49.7138C17.0756 49.6203 16.9871 49.5089 16.928 49.3862C16.8688 49.2635 16.8401 49.1321 16.8438 49V15C16.8438 14.43 17.3611 14 18.0469 14ZM25.1164 17.438C24.565 17.4269 24.0165 17.5077 23.5032 17.6754C22.9898 17.8432 22.522 18.0946 22.1273 18.4148C21.7326 18.7351 21.419 19.1177 21.2048 19.5402C20.9907 19.9627 20.8803 20.4165 20.8803 20.875C20.8803 21.3335 20.9907 21.7873 21.2048 22.2098C21.419 22.6323 21.7326 23.0149 22.1273 23.3352C22.522 23.6554 22.9898 23.9068 23.5032 24.0746C24.0165 24.2423 24.565 24.3231 25.1164 24.312C26.1959 24.2904 27.2223 23.9187 27.9766 23.2765C28.7308 22.6343 29.153 21.7725 29.153 20.875C29.153 19.9775 28.7308 19.1157 27.9766 18.4735C27.2223 17.8313 26.1959 17.4596 25.1164 17.438V17.438ZM46.8449 26.562C43.3967 26.562 41.1036 28.132 40.1555 29.624H40.0039V27H33.2351V46H40.3047V36.624C40.3047 34.148 40.8966 31.75 44.5902 31.75C48.2285 31.75 48.2766 34.546 48.2766 36.75V46H55.3438V35.562C55.3438 30.454 54.0372 26.562 46.8473 26.562H46.8449ZM21.6562 27V46H28.8004V27H21.6562Z" fill="white"/>
</svg>
