<svg width="25" height="26" viewBox="0 0 25 26" fill="none" xmlns="http://www.w3.org/2000/svg">
<path fill-rule="evenodd" clip-rule="evenodd" d="M12.5 16.875C7.56889 16.875 3.57143 20.6526 3.57143 25.3125H0C0 18.7886 5.59644 13.5 12.5 13.5C19.4036 13.5 25 18.7886 25 25.3125H21.4286C21.4286 20.6526 17.4311 16.875 12.5 16.875Z" fill="#FF7600"/>
<path fill-rule="evenodd" clip-rule="evenodd" d="M12.5 12.125C14.4724 12.125 16.0714 10.614 16.0714 8.75C16.0714 6.88604 14.4724 5.375 12.5 5.375C10.5276 5.375 8.92857 6.88604 8.92857 8.75C8.92857 10.614 10.5276 12.125 12.5 12.125ZM12.5 15.5C16.4449 15.5 19.6429 12.4779 19.6429 8.75C19.6429 5.02208 16.4449 2 12.5 2C8.55511 2 5.35714 5.02208 5.35714 8.75C5.35714 12.4779 8.55511 15.5 12.5 15.5Z" fill="#FF7600"/>
</svg>
