<svg width="20" height="24" viewBox="0 0 20 24" fill="none" xmlns="http://www.w3.org/2000/svg">
<path d="M1.66667 23.31C1.66667 23.31 0 23.31 0 21.3675C0 19.425 1.66667 13.5975 10 13.5975C18.3333 13.5975 20 19.425 20 21.3675C20 23.31 18.3333 23.31 18.3333 23.31H1.66667ZM10 11.655C11.3261 11.655 12.5979 11.041 13.5355 9.94816C14.4732 8.8553 15 7.37305 15 5.8275C15 4.28195 14.4732 2.7997 13.5355 1.70684C12.5979 0.613967 11.3261 0 10 0C8.67392 0 7.40215 0.613967 6.46447 1.70684C5.52678 2.7997 5 4.28195 5 5.8275C5 7.37305 5.52678 8.8553 6.46447 9.94816C7.40215 11.041 8.67392 11.655 10 11.655V11.655Z" fill="#FF7600"/>
</svg>
