<svg width="25" height="24" viewBox="0 0 25 24" fill="none" xmlns="http://www.w3.org/2000/svg">
<path d="M2.08333 23.31C2.08333 23.31 0 23.31 0 21.3675C0 19.425 2.08333 13.5975 12.5 13.5975C22.9167 13.5975 25 19.425 25 21.3675C25 23.31 22.9167 23.31 22.9167 23.31H2.08333ZM12.5 11.655C14.1576 11.655 15.7473 11.041 16.9194 9.94816C18.0915 8.8553 18.75 7.37305 18.75 5.8275C18.75 4.28195 18.0915 2.7997 16.9194 1.70684C15.7473 0.613967 14.1576 0 12.5 0C10.8424 0 9.25268 0.613967 8.08058 1.70684C6.90848 2.7997 6.25 4.28195 6.25 5.8275C6.25 7.37305 6.90848 8.8553 8.08058 9.94816C9.25268 11.041 10.8424 11.655 12.5 11.655V11.655Z" fill="#FF7600"/>
</svg>
