<svg width="25" height="24" viewBox="0 0 25 24" fill="none" xmlns="http://www.w3.org/2000/svg">
<path d="M23.8346 3.68321L20.6035 0.673274C20.3755 0.459817 20.1046 0.290453 19.8063 0.174911C19.5079 0.0593697 19.1881 -7.2192e-05 18.865 6.57985e-08C18.2066 6.57985e-08 17.5877 0.240455 17.1235 0.673274L13.6466 3.91517C13.4177 4.1277 13.2361 4.3803 13.1122 4.65848C12.9882 4.93665 12.9245 5.23491 12.9246 5.53613C12.9246 6.14999 13.1824 6.72708 13.6466 7.1599L16.1891 9.53051C15.594 10.7536 14.7665 11.8663 13.7468 12.8148C12.7295 13.768 11.5363 14.5423 10.2244 15.1006L7.68193 12.73C7.454 12.5165 7.18308 12.3472 6.88475 12.2316C6.58641 12.1161 6.26653 12.0566 5.94348 12.0567C5.28512 12.0567 4.66619 12.2972 4.202 12.73L0.722078 15.969C0.492867 16.182 0.31107 16.435 0.187148 16.7137C0.0632259 16.9924 -0.000375962 17.2911 1.67181e-06 17.5928C1.67181e-06 18.2067 0.257886 18.7838 0.722078 19.2166L3.94715 22.2237C4.68743 22.9168 5.70987 23.31 6.75961 23.31C6.98109 23.31 7.19346 23.293 7.4028 23.2591C11.4925 22.6311 15.5489 20.6028 18.8225 17.5532C22.0931 14.5065 24.2654 10.7271 24.948 6.90248C25.1544 5.73415 24.7387 4.53187 23.8346 3.68321V3.68321Z" fill="#FF7600"/>
</svg>
