<svg width="12" height="11" viewBox="0 0 12 11" fill="none" xmlns="http://www.w3.org/2000/svg">
<rect width="12" height="11" rx="1" fill="white"/>
<path fill-rule="evenodd" clip-rule="evenodd" d="M9 8C9 8.55228 8.55228 9 8 9L4 9C3.44772 9 3 8.55228 3 8L3 3C3 2.44772 3.44772 2 4 2L7.20711 2L9 3.79289L9 8ZM8 8L8 4.5L6.5 4.5L6.5 3L4 3L4 8L8 8Z" fill="black"/>
<path fill-rule="evenodd" clip-rule="evenodd" d="M6.59995 5.88911L4.19995 5.88911L4.19995 5.11133L6.59995 5.11133L6.59995 5.88911Z" fill="#0C0C0C"/>
<path fill-rule="evenodd" clip-rule="evenodd" d="M7.19995 7.44428L4.19995 7.44428V6.6665L7.19995 6.6665V7.44428Z" fill="black"/>
</svg>
