<svg width="50" height="50" viewBox="0 0 50 50" fill="none" xmlns="http://www.w3.org/2000/svg">
<path d="M44.25 13.06C42.8084 13.6986 41.2793 14.1176 39.7135 14.303C41.3628 13.3162 42.5969 11.7634 43.186 9.93396C41.6358 10.8542 39.9395 11.5023 38.1705 11.85C37.4315 11.0617 36.5384 10.4336 35.5466 10.0046C34.5549 9.57555 33.4856 9.35479 32.405 9.35596C28.043 9.35596 24.506 12.892 24.506 17.255C24.506 17.8735 24.576 18.477 24.711 19.0555C18.146 18.726 12.326 15.581 8.43004 10.8015C7.72757 12.007 7.35845 13.3777 7.36053 14.773C7.3595 16.0735 7.67973 17.3541 8.29276 18.501C8.90579 19.648 9.79265 20.6258 10.8745 21.3475C9.62039 21.3076 8.39388 20.9689 7.29703 20.3595C7.29604 20.3925 7.29604 20.425 7.29604 20.459C7.29604 24.285 10.0185 27.4775 13.6315 28.204C12.4682 28.5189 11.2484 28.5651 10.0645 28.339C11.0695 31.4765 13.9865 33.761 17.443 33.825C14.645 36.0208 11.1898 37.2118 7.63303 37.2065C6.99554 37.2065 6.36704 37.1695 5.74854 37.096C9.3602 39.4165 13.5636 40.6483 17.8565 40.644C32.3855 40.644 40.3305 28.6085 40.3305 18.1715C40.3305 17.8295 40.3225 17.488 40.3075 17.1485C41.8548 16.0314 43.19 14.6468 44.25 13.06Z" fill="white"/>
</svg>
